<?xml version="1.0" encoding="UTF-8" standalone="no"?>
<svg
   height="16px"
   viewBox="0 0 16 16"
   width="16px"
   version="1.1"
   id="svg2"
   sodipodi:docname="arrow-into-box-flipped-symbolic.svg"
   inkscape:version="1.4.2 (ebf0e940d0, 2025-05-08)"
   xmlns:inkscape="http://www.inkscape.org/namespaces/inkscape"
   xmlns:sodipodi="http://sodipodi.sourceforge.net/DTD/sodipodi-0.dtd"
   xmlns="http://www.w3.org/2000/svg"
   xmlns:svg="http://www.w3.org/2000/svg">
  <defs
     id="defs2" />
  <sodipodi:namedview
     id="namedview2"
     pagecolor="#ffffff"
     bordercolor="#000000"
     borderopacity="0.25"
     inkscape:showpageshadow="2"
     inkscape:pageopacity="0.0"
     inkscape:pagecheckerboard="0"
     inkscape:deskcolor="#d1d1d1"
     inkscape:zoom="26.483887"
     inkscape:cx="10.987813"
     inkscape:cy="12.705839"
     inkscape:window-width="1704"
     inkscape:window-height="996"
     inkscape:window-x="0"
     inkscape:window-y="0"
     inkscape:window-maximized="1"
     inkscape:current-layer="svg2" />
  <g
     fill="#222222"
     id="g2"
     transform="matrix(-1,0,0,1,16,0)">
    <path
       d="m 5,-0.0078125 c -1.644531,0 -3,1.3554685 -3,3.0000005 v 2 h 2 v -2 c 0,-0.570313 0.429688,-1 1,-1 h 8 c 0.570312,0 1,0.429687 1,1 v 10 c 0,0.570312 -0.429688,1 -1,1 H 5 c -0.570312,0 -1,-0.429688 -1,-1 v -2 H 2 v 2 c 0,1.644531 1.355469,3 3,3 h 8 c 1.644531,0 3,-1.355469 3,-3 v -10 c 0,-1.644532 -1.355469,-3.0000005 -3,-3.0000005 z m 0,0"
       id="path1" />
    <path
       d="m 6,3.992188 v 1 C 6,5.25 6.128906,5.519531 6.3125,5.710938 l 1.28125,1.28125 H 0 v 2 H 7.59375 L 6.3125,10.273438 C 6.128906,10.464844 6,10.683594 6,10.992188 v 1 h 1 c 0.308594,0 0.550781,-0.08984 0.75,-0.28125 L 11.40625,7.992188 7.75,4.273438 C 7.550781,4.082031 7.308594,3.992188 7,3.992188 Z m 0,0"
       id="path2" />
  </g>
</svg>
