<?xml version="1.0" encoding="UTF-8" standalone="no"?>
<svg
   height="16px"
   viewBox="0 0 16 16"
   width="16px"
   version="1.1"
   id="svg1"
   sodipodi:docname="calculator-symbolic.svg"
   inkscape:version="1.4.2 (ebf0e940d0, 2025-05-08)"
   xmlns:inkscape="http://www.inkscape.org/namespaces/inkscape"
   xmlns:sodipodi="http://sodipodi.sourceforge.net/DTD/sodipodi-0.dtd"
   xmlns="http://www.w3.org/2000/svg"
   xmlns:svg="http://www.w3.org/2000/svg">
  <defs
     id="defs1" />
  <sodipodi:namedview
     id="namedview1"
     pagecolor="#ffffff"
     bordercolor="#000000"
     borderopacity="0.25"
     inkscape:showpageshadow="2"
     inkscape:pageopacity="0.0"
     inkscape:pagecheckerboard="0"
     inkscape:deskcolor="#d1d1d1"
     inkscape:zoom="46.4375"
     inkscape:cx="7.9892328"
     inkscape:cy="8"
     inkscape:window-width="1704"
     inkscape:window-height="996"
     inkscape:window-x="0"
     inkscape:window-y="0"
     inkscape:window-maximized="1"
     inkscape:current-layer="svg1" />
  <path
     d="m 6 2 c -1.660156 0 -3 1.339844 -3 3 v 6 c 0 1.660156 1.339844 3 3 3 h 4 c 1.660156 0 3 -1.339844 3 -3 v -6 c 0 -1.660156 -1.339844 -3 -3 -3 z m -0.46875 2 h 4.9375 c 0.292969 0 0.53125 0.238281 0.53125 0.53125 v 0.9375 c 0 0.292969 -0.238281 0.53125 -0.53125 0.53125 h -4.9375 c -0.292969 0 -0.53125 -0.238281 -0.53125 -0.53125 v -0.9375 c 0 -0.292969 0.238281 -0.53125 0.53125 -0.53125 z m 0.46875 3 c 0.554688 0 1 0.445312 1 1 s -0.445312 1 -1 1 s -1 -0.445312 -1 -1 s 0.445312 -1 1 -1 z m 4 0 c 0.554688 0 1 0.445312 1 1 s -0.445312 1 -1 1 s -1 -0.445312 -1 -1 s 0.445312 -1 1 -1 z m -4 3 c 0.554688 0 1 0.445312 1 1 s -0.445312 1 -1 1 s -1 -0.445312 -1 -1 s 0.445312 -1 1 -1 z m 4 0 c 0.554688 0 1 0.445312 1 1 s -0.445312 1 -1 1 s -1 -0.445312 -1 -1 s 0.445312 -1 1 -1 z m 0 0"
     fill="#ff0000"
     fill-rule="evenodd"
     id="path1"
     style="fill:#1a1a1a" />
</svg>
