<?xml version="1.0" encoding="UTF-8"?>
<svg height="16px" viewBox="0 0 16 16" width="16px" xmlns="http://www.w3.org/2000/svg">
    <g fill="#222222" fill-rule="evenodd">
        <path d="m 5.996094 8.003906 c -0.253906 0.003906 -0.507813 0.105469 -0.703125 0.300782 l -2.011719 1.996093 c -0.375 0.390625 -0.375 1.007813 0 1.398438 l 1.988281 2 c 0.386719 0.394531 1.019531 0.402343 1.414063 0.015625 c 0.253906 -0.253906 0.316406 -0.5 0.316406 -0.714844 v -1 h 4 c 1.332031 0 1.332031 -2 0 -2 h -4 v -1 c 0 -0.324219 -0.023438 -0.449219 -0.292969 -0.714844 c -0.195312 -0.191406 -0.453125 -0.285156 -0.710937 -0.28125 z m 0 0"/>
        <path d="m 10.003906 7.996094 c 0.253906 -0.003906 0.507813 -0.105469 0.703125 -0.300782 l 2.011719 -1.996093 c 0.375 -0.390625 0.375 -1.007813 0 -1.398438 l -1.988281 -2 c -0.386719 -0.394531 -1.019531 -0.402343 -1.414063 -0.015625 c -0.253906 0.253906 -0.316406 0.5 -0.316406 0.714844 v 1 h -4 c -1.332031 0 -1.332031 2 0 2 h 4 v 1 c 0 0.324219 0.027344 0.445312 0.292969 0.714844 c 0.195312 0.191406 0.453125 0.285156 0.710937 0.28125 z m 0 0"/>
    </g>
</svg>
