<?xml version="1.0" encoding="UTF-8"?>
<svg height="16px" viewBox="0 0 16 16" width="16px" xmlns="http://www.w3.org/2000/svg">
    <g fill-rule="evenodd">
        <path d="m 4 4 h 8 c 1.109375 0 1.84375 0.902344 2 2 l 1 7 c 0.15625 1.097656 -0.671875 2 -1.78125 2 h -10.21875 c -1.109375 0 -2.15625 -0.902344 -2 -2 l 1 -7 c 0.15625 -1.097656 0.890625 -2 2 -2 z m 0 0"/>
        <path d="m 8 0 c -1.519531 0 -2.75 1.230469 -2.75 2.75 s 1.230469 2.75 2.75 2.75 s 2.75 -1.230469 2.75 -2.75 s -1.230469 -2.75 -2.75 -2.75 z m 0 1.648438 c 0.609375 0 1.101562 0.492187 1.101562 1.101562 s -0.492187 1.101562 -1.101562 1.101562 s -1.101562 -0.492187 -1.101562 -1.101562 s 0.492187 -1.101562 1.101562 -1.101562 z m 0 0"/>
    </g>
</svg>
