<?xml version="1.0" encoding="UTF-8"?>
<svg height="16px" viewBox="0 0 16 16" width="16px" xmlns="http://www.w3.org/2000/svg">
    <g fill="#2e3434">
        <path d="m 8.023438 1.058594 c -2.058594 0 -4.113282 0.78125 -5.675782 2.34375 c -3.128906 3.128906 -3.128906 8.226562 0 11.351562 c 0.390625 0.394532 1.027344 0.394532 1.417969 0 c 0.390625 -0.390625 0.390625 -1.027344 0 -1.417968 c -2.359375 -2.359376 -2.359375 -6.152344 0 -8.515626 c 2.359375 -2.359374 6.152344 -2.359374 8.515625 0 c 2.359375 2.363282 2.359375 6.15625 0 8.515626 c -0.394531 0.390624 -0.394531 1.027343 0 1.417968 c 0.390625 0.394532 1.027344 0.394532 1.417969 0 c 3.128906 -3.125 3.128906 -8.222656 0 -11.351562 c -1.566407 -1.5625 -3.617188 -2.34375 -5.675781 -2.34375 z m 0 0"/>
        <path d="m 13.289062 2.296875 l -4.773437 4.773437 c -0.6875 -0.183593 -1.425781 0.015626 -1.929687 0.515626 c -0.78125 0.78125 -0.78125 2.046874 0 2.828124 s 2.046874 0.78125 2.828124 0 c 0.507813 -0.503906 0.703126 -1.242187 0.515626 -1.929687 l 4.773437 -4.773437 l 0.367187 -1.78125 z m 0 0"/>
    </g>
</svg>
