<?xml version="1.0" encoding="UTF-8"?>
<svg height="16px" viewBox="0 0 16 16" width="16px" xmlns="http://www.w3.org/2000/svg">
    <g fill-rule="evenodd">
        <path d="m 5 0 c -1.660156 0 -3 1.339844 -3 3 v 10 c 0 1.660156 1.339844 3 3 3 h 6 c 1.660156 0 3 -1.339844 3 -3 v -10 c 0 -1.660156 -1.339844 -3 -3 -3 z m 0 2 h 6 c 0.554688 0 1 0.445312 1 1 v 10 c 0 0.554688 -0.445312 1 -1 1 h -6 c -0.554688 0 -1 -0.445312 -1 -1 v -10 c 0 -0.554688 0.445312 -1 1 -1 z m 0 0"/>
        <path d="m 5 6 l 4 1.5 l -4 1.5 z m 0 0"/>
        <path d="m 5 10 l 4 1.5 l -4 1.5 z m 0 0"/>
    </g>
</svg>
